<svg version="1.1" id="Слой_1" xmlns="http://www.w3.org/2000/svg" xmlns:xlink="http://www.w3.org/1999/xlink" x="0px" y="0px"
	 viewBox="0 0 185.8 36.3" enable-background="new 0 0 185.8 36.3" xml:space="preserve">
<g id="logo">
	<rect x="18.7" y="3" fill="#F15E21" width="13" height="13"/>
	<g>
		<path fill="#F14C21" d="M47.2,0h2v2.1H50c1.3,0,2.5,0.3,3.5,0.8s1.7,1.3,2.3,2.3c0.5,1,0.8,2.1,0.8,3.3c0,1.3-0.3,2.5-0.9,3.5
			s-1.4,1.8-2.4,2.3s-2.2,0.8-3.6,0.8h-0.5v2.6h-2v-2.6h-0.5c-1.4,0-2.6-0.3-3.6-0.8S41.3,13,40.7,12c-0.6-1-0.9-2.2-0.9-3.4
			s0.3-2.3,0.8-3.3s1.3-1.7,2.3-2.3c1-0.5,2.2-0.8,3.5-0.8h0.8C47.2,2.2,47.2,0,47.2,0z M47.2,3.8h-0.7c-1.4,0-2.6,0.4-3.4,1.2
			c-0.8,0.8-1.2,2-1.2,3.4c0,1.5,0.4,2.7,1.3,3.6c0.9,0.9,2.1,1.3,3.7,1.3h0.3C47.2,13.3,47.2,3.8,47.2,3.8z M49.2,13.4h0.3
			c1.6,0,2.8-0.4,3.7-1.3c0.9-0.9,1.3-2.1,1.3-3.6s-0.4-2.6-1.2-3.4s-1.9-1.2-3.4-1.2h-0.7C49.2,3.9,49.2,13.4,49.2,13.4z"/>
		<path fill="#F14C21" d="M65.4,17.7c-1.9,0-3.4-0.6-4.5-1.7c-1.1-1.2-1.7-2.8-1.7-4.8c0-2.1,0.5-3.7,1.5-5c1-1.2,2.4-1.8,4.1-1.8
			c1.6,0,2.9,0.5,3.8,1.6S70,8.5,70,10.2v1.2h-8.9c0,1.5,0.4,2.7,1.1,3.5c0.7,0.8,1.7,1.2,3.1,1.2c1.4,0,2.8-0.3,4.1-0.9v1.7
			c-0.7,0.3-1.3,0.5-2,0.6C67,17.6,66.3,17.7,65.4,17.7z M64.8,6c-1,0-1.9,0.3-2.5,1s-1,1.6-1.1,2.8H68c0-1.2-0.3-2.2-0.8-2.8
			C66.7,6.3,65.9,6,64.8,6z"/>
		<path fill="#F14C21" d="M75.4,4.6V10h7.2V4.6h2v12.9h-2v-5.8h-7.2v5.8h-2V4.6H75.4z"/>
		<path fill="#F14C21" d="M93.9,17.7c-1.9,0-3.3-0.6-4.3-1.7c-1-1.2-1.5-2.8-1.5-4.9c0-2.2,0.5-3.8,1.6-5c1-1.2,2.5-1.8,4.4-1.8
			c0.6,0,1.2,0.1,1.9,0.2c0.5,0.2,1,0.3,1.4,0.5l-0.6,1.7c-0.4-0.2-0.9-0.3-1.4-0.4s-1-0.2-1.4-0.2c-2.6,0-3.9,1.7-3.9,5
			c0,1.6,0.3,2.8,1,3.7c0.6,0.8,1.6,1.3,2.8,1.3c1.1,0,2.2-0.2,3.3-0.7V17C96.3,17.5,95.2,17.7,93.9,17.7z"/>
		<path fill="#F14C21" d="M108.9,6.2h-4.2v11.2h-2V6.2h-4.1V4.6h10.3C108.9,4.6,108.9,6.2,108.9,6.2z"/>
		<path fill="#F14C21" d="M116.9,17.7c-1.9,0-3.4-0.6-4.5-1.7c-1.1-1.2-1.7-2.8-1.7-4.8c0-2.1,0.5-3.7,1.5-5c1-1.2,2.4-1.8,4.1-1.8
			c1.6,0,2.9,0.5,3.8,1.6s1.4,2.5,1.4,4.2v1.2h-8.9c0,1.5,0.4,2.7,1.1,3.5s1.7,1.2,3.1,1.2s2.8-0.3,4.1-0.9v1.7
			c-0.7,0.3-1.3,0.5-2,0.6C118.6,17.6,117.8,17.7,116.9,17.7z M116.4,6c-1,0-1.9,0.3-2.5,1s-1,1.6-1.1,2.8h6.7
			c0-1.2-0.3-2.2-0.8-2.8C118.2,6.3,117.4,6,116.4,6z"/>
		<path fill="#F14C21" d="M131,17.7c-0.8,0-1.6-0.2-2.3-0.5s-1.3-0.8-1.7-1.4h-0.1c0.1,0.8,0.1,1.5,0.1,2.1v5.3h-2V4.6h1.6l0.3,1.8
			h0.1c0.5-0.7,1.1-1.2,1.8-1.5s1.4-0.5,2.3-0.5c1.7,0,3,0.6,4,1.8c0.9,1.2,1.4,2.8,1.4,4.9s-0.5,3.8-1.4,4.9
			C134,17.1,132.7,17.7,131,17.7z M130.7,6c-1.3,0-2.3,0.4-2.9,1.1s-0.9,1.9-0.9,3.5V11c0,1.8,0.3,3.1,0.9,3.9s1.6,1.2,2.9,1.2
			c1.1,0,2-0.5,2.6-1.4s0.9-2.1,0.9-3.7s-0.3-2.8-0.9-3.7C132.8,6.4,131.9,6,130.7,6z"/>
		<path fill="#2C3E50" d="M152.4,3.3c-1.7,0-3.1,0.6-4.1,1.7s-1.5,2.7-1.5,4.7s0.5,3.6,1.4,4.7c1,1.1,2.3,1.7,4.1,1.7
			c1.1,0,2.3-0.2,3.7-0.6v1.6c-1.1,0.4-2.4,0.6-4,0.6c-2.3,0-4.1-0.7-5.3-2.1s-1.9-3.4-1.9-5.9c0-1.6,0.3-3,0.9-4.2
			c0.6-1.2,1.5-2.1,2.6-2.8s2.5-1,4-1c1.6,0,3.1,0.3,4.3,0.9l-0.8,1.6C154.8,3.6,153.6,3.3,152.4,3.3z"/>
		<path fill="#2C3E50" d="M171.1,17.5h-1.8v-14h-8v14h-1.8V1.9h11.6V17.5z"/>
		<path fill="#2C3E50" d="M174.5,10.5c0-2.6,0.4-4.6,1.1-6c0.8-1.4,1.9-2.3,3.6-2.7c2-0.4,3.8-0.8,5.4-1.1l0.3,1.6
			c-2.5,0.4-4.2,0.7-5.3,1c-1,0.2-1.8,0.8-2.3,1.7s-0.8,2.1-0.8,3.6h0.1c0.4-0.6,1-1.1,1.7-1.4s1.4-0.5,2.2-0.5
			c1.4,0,2.6,0.5,3.4,1.4s1.2,2.2,1.2,3.9c0,1.8-0.5,3.3-1.4,4.3s-2.2,1.5-3.9,1.5c-1.6,0-2.9-0.6-3.9-1.9
			C175,14.5,174.5,12.8,174.5,10.5z M179.9,16.2c2.2,0,3.3-1.4,3.3-4.1c0-2.6-1-4-3-4c-0.5,0-1.1,0.1-1.6,0.3s-1,0.5-1.4,0.9
			s-0.7,0.7-1,1.1c0,1.9,0.3,3.3,0.9,4.3C177.8,15.7,178.7,16.2,179.9,16.2z"/>
	</g>
	<g>
		<path fill="#939393" d="M41.5,26.9h1.1l1.5,3.7c0.3,0.8,0.5,1.4,0.6,1.8h0.1c0.1-0.2,0.2-0.5,0.3-1c0.2-0.5,0.7-2,1.7-4.5H48
			l-3,7.3c-0.3,0.7-0.6,1.2-1,1.5s-0.9,0.5-1.5,0.5c-0.3,0-0.6,0-0.9-0.1v-0.8c0.2,0,0.5,0.1,0.8,0.1c0.7,0,1.2-0.4,1.5-1.1l0.4-0.9
			L41.5,26.9z"/>
		<path fill="#939393" d="M58,30.1c0,1.1-0.3,1.9-0.8,2.5s-1.3,0.9-2.2,0.9s-1.6-0.3-2.1-0.8s-0.8-1.3-0.9-2.2h-1.8v2.9h-1v-6.5h1
			v2.7H52c0.1-0.9,0.4-1.6,0.9-2.1s1.2-0.7,2.1-0.7c0.9,0,1.7,0.3,2.2,0.9C57.8,28.3,58,29.1,58,30.1z M53.1,30.1
			c0,0.8,0.2,1.5,0.5,1.9c0.3,0.4,0.8,0.6,1.5,0.6s1.2-0.2,1.5-0.6s0.5-1.1,0.5-1.9s-0.2-1.4-0.5-1.9s-0.8-0.6-1.5-0.6
			s-1.2,0.2-1.5,0.6S53.1,29.3,53.1,30.1z"/>
		<path fill="#939393" d="M64.6,27.7h-2.3v5.6h-1.1v-5.6H59v-0.8h5.5L64.6,27.7L64.6,27.7z"/>
		<path fill="#939393" d="M70.3,26.9v2.7h3.9v-2.7h1v6.5h-1v-2.9h-3.9v2.9h-1v-6.5C69.3,26.9,70.3,26.9,70.3,26.9z"/>
		<path fill="#939393" d="M81.8,33.4l-0.2-0.9h-0.1c-0.3,0.4-0.7,0.7-1,0.8s-0.8,0.2-1.3,0.2c-0.7,0-1.2-0.2-1.6-0.5
			S77,32.2,77,31.6c0-1.3,1.1-2,3.4-2h1.2v-0.4c0-0.5-0.1-0.9-0.4-1.1c-0.2-0.2-0.6-0.4-1.1-0.4c-0.6,0-1.2,0.2-2,0.5l-0.3-0.7
			c0.3-0.2,0.7-0.3,1.1-0.4s0.8-0.1,1.2-0.1c0.8,0,1.4,0.2,1.8,0.5s0.6,0.9,0.6,1.6v4.4L81.8,33.4L81.8,33.4z M79.4,32.7
			c0.7,0,1.2-0.2,1.5-0.5s0.6-0.8,0.6-1.4v-0.6h-1c-0.8,0-1.4,0.1-1.8,0.4c-0.4,0.2-0.6,0.5-0.6,1c0,0.4,0.1,0.6,0.3,0.8
			C78.7,32.6,79,32.7,79.4,32.7z"/>
		<path fill="#939393" d="M93.7,28.5c0,0.4-0.1,0.7-0.4,1c-0.3,0.2-0.6,0.4-1.1,0.4V30c0.6,0.1,1,0.2,1.3,0.5c0.3,0.2,0.4,0.6,0.4,1
			c0,0.6-0.2,1.1-0.7,1.4c-0.5,0.3-1.2,0.5-2.1,0.5H88v-6.5h3C92.8,26.9,93.7,27.4,93.7,28.5z M92.7,28.6c0-0.3-0.1-0.5-0.4-0.7
			c-0.3-0.1-0.7-0.2-1.2-0.2h-2v1.8h1.8c0.6,0,1.1-0.1,1.4-0.2S92.7,29,92.7,28.6z M92.9,31.4c0-0.3-0.1-0.6-0.4-0.8
			c-0.3-0.2-0.8-0.2-1.4-0.2h-1.9v2.1h1.9C92.3,32.5,92.9,32.2,92.9,31.4z"/>
		<path fill="#939393" d="M99.7,33.4l-0.2-0.9h-0.1c-0.3,0.4-0.7,0.7-1,0.8s-0.8,0.2-1.3,0.2c-0.7,0-1.2-0.2-1.6-0.5
			s-0.6-0.8-0.6-1.4c0-1.3,1.1-2,3.4-2h1.2v-0.4c0-0.5-0.1-0.9-0.4-1.1c-0.2-0.2-0.6-0.4-1.1-0.4c-0.6,0-1.2,0.2-2,0.5l-0.3-0.7
			c0.3-0.2,0.7-0.3,1.1-0.4S97.6,27,98,27c0.8,0,1.4,0.2,1.8,0.5s0.6,0.9,0.6,1.6v4.4L99.7,33.4L99.7,33.4z M97.3,32.7
			c0.7,0,1.2-0.2,1.5-0.5s0.6-0.8,0.6-1.4v-0.6h-1c-0.8,0-1.4,0.1-1.8,0.4c-0.4,0.2-0.6,0.5-0.6,1c0,0.4,0.1,0.6,0.3,0.8
			C96.6,32.6,96.9,32.7,97.3,32.7z"/>
		<path fill="#939393" d="M107.8,32.5h3.1v-5.6h1.1v6.5h-9.3v-6.5h1v5.6h3.1v-5.6h1C107.8,26.9,107.8,32.5,107.8,32.5z"/>
		<path fill="#939393" d="M117.1,33.5c-1,0-1.8-0.3-2.4-0.9s-0.9-1.4-0.9-2.4s0.3-1.9,0.8-2.5c0.6-0.6,1.3-0.9,2.2-0.9
			c0.9,0,1.6,0.3,2.1,0.8s0.8,1.2,0.8,2.1v0.6h-4.8c0,0.8,0.2,1.3,0.6,1.7s0.9,0.6,1.6,0.6s1.5-0.1,2.2-0.4v0.9
			c-0.4,0.1-0.7,0.3-1.1,0.3S117.6,33.5,117.1,33.5z M116.8,27.6c-0.6,0-1,0.2-1.3,0.5s-0.5,0.8-0.6,1.4h3.6c0-0.6-0.1-1.1-0.4-1.4
			C117.8,27.8,117.4,27.6,116.8,27.6z"/>
		<path fill="#939393" d="M125,32.4l0.2-0.5l0.3-0.7l1.9-4.3h1.3v6.4h-0.9V28l-0.1,0.3l-0.4,0.9l-1.8,4.1h-0.9l-1.8-4.1
			c-0.2-0.5-0.4-0.9-0.5-1.2v5.3h-0.9v-6.4h1.3l1.8,4.1C124.7,31.4,124.9,31.9,125,32.4z"/>
		<path fill="#939393" d="M134,29.5c0-1.4,0.2-2.5,0.7-3.3c0.4-0.8,1.2-1.3,2.1-1.5c1.2-0.2,2.3-0.4,3.2-0.6l0.2,0.9
			c-1.5,0.2-2.5,0.4-3.1,0.5s-1.1,0.4-1.4,0.9c-0.3,0.5-0.5,1.1-0.5,2h0.1c0.3-0.3,0.6-0.6,1-0.8c0.4-0.2,0.8-0.3,1.3-0.3
			c0.9,0,1.5,0.3,2,0.8s0.7,1.2,0.7,2.1c0,1-0.3,1.8-0.8,2.4s-1.3,0.9-2.3,0.9s-1.7-0.3-2.3-1C134.3,31.7,134,30.8,134,29.5z
			 M137.2,32.7c1.3,0,1.9-0.8,1.9-2.3s-0.6-2.2-1.8-2.2c-0.3,0-0.6,0.1-0.9,0.2c-0.3,0.1-0.6,0.3-0.8,0.5s-0.4,0.4-0.6,0.6
			c0,1,0.2,1.8,0.5,2.4C135.9,32.4,136.5,32.7,137.2,32.7z"/>
		<path fill="#939393" d="M146.3,33.4l-0.2-0.9H146c-0.3,0.4-0.7,0.7-1,0.8s-0.8,0.2-1.3,0.2c-0.7,0-1.2-0.2-1.6-0.5
			s-0.6-0.8-0.6-1.4c0-1.3,1.1-2,3.4-2h1.2v-0.4c0-0.5-0.1-0.9-0.4-1.1c-0.2-0.2-0.6-0.4-1.1-0.4c-0.6,0-1.2,0.2-2,0.5l-0.3-0.7
			c0.3-0.2,0.7-0.3,1.1-0.4c0.4-0.1,0.8-0.1,1.2-0.1c0.8,0,1.4,0.2,1.8,0.5c0.4,0.3,0.6,0.9,0.6,1.6v4.4L146.3,33.4L146.3,33.4z
			 M144,32.7c0.7,0,1.2-0.2,1.5-0.5s0.6-0.8,0.6-1.4v-0.6h-1c-0.8,0-1.4,0.1-1.8,0.4c-0.4,0.2-0.6,0.5-0.6,1c0,0.4,0.1,0.6,0.3,0.8
			C143.2,32.6,143.5,32.7,144,32.7z"/>
		<path fill="#939393" d="M154.4,33.4h-1.1v-5.6h-2.1c-0.1,1.4-0.3,2.5-0.5,3.3s-0.5,1.4-0.8,1.8s-0.7,0.6-1.2,0.6
			c-0.2,0-0.4,0-0.5-0.1v-0.7c0.1,0,0.2,0,0.3,0c0.5,0,0.9-0.5,1.2-1.4c0.3-1,0.5-2.4,0.7-4.3h4.1L154.4,33.4L154.4,33.4z"/>
		<path fill="#939393" d="M160.7,26.9h1.2l-3,3.1l3.2,3.3h-1.2l-3.2-3.3v3.3h-1v-6.5h1V30L160.7,26.9z"/>
		<path fill="#939393" d="M169.4,30.1c0,1.1-0.3,1.9-0.9,2.5s-1.4,0.9-2.4,0.9c-0.6,0-1.2-0.1-1.7-0.4c-0.5-0.3-0.9-0.7-1.1-1.2
			c-0.3-0.5-0.4-1.1-0.4-1.8c0-1.1,0.3-1.9,0.8-2.5c0.6-0.6,1.3-0.9,2.4-0.9c1,0,1.7,0.3,2.3,0.9C169.1,28.3,169.4,29.1,169.4,30.1z
			 M164.1,30.1c0,0.8,0.2,1.5,0.5,1.9c0.3,0.4,0.9,0.6,1.6,0.6s1.2-0.2,1.6-0.6s0.5-1.1,0.5-1.9s-0.2-1.4-0.5-1.9
			c-0.4-0.4-0.9-0.6-1.6-0.6c-0.7,0-1.2,0.2-1.6,0.6C164.3,28.7,164.1,29.3,164.1,30.1z"/>
		<path fill="#939393" d="M172.3,26.9v2.7h3.9v-2.7h1v6.5h-1v-2.9h-3.9v2.9h-1v-6.5C171.3,26.9,172.3,26.9,172.3,26.9z"/>
		<path fill="#939393" d="M182.3,33.5c-1,0-1.8-0.3-2.4-0.9s-0.9-1.4-0.9-2.4s0.3-1.9,0.8-2.5c0.6-0.6,1.3-0.9,2.2-0.9
			s1.6,0.3,2.1,0.8s0.8,1.2,0.8,2.1v0.6h-4.8c0,0.8,0.2,1.3,0.6,1.7c0.4,0.4,0.9,0.6,1.6,0.6c0.7,0,1.5-0.1,2.2-0.4v0.9
			c-0.4,0.1-0.7,0.3-1.1,0.3S182.8,33.5,182.3,33.5z M182.1,27.6c-0.6,0-1,0.2-1.3,0.5s-0.5,0.8-0.6,1.4h3.6c0-0.6-0.1-1.1-0.4-1.4
			C183,27.8,182.6,27.6,182.1,27.6z"/>
	</g>
	<g>
		<rect x="18.7" y="20" fill="#2C3E50" width="13" height="13"/>
	</g>
	<g>
		<rect x="1.7" y="20" fill="#2C3E50" width="13" height="13"/>
	</g>
	<rect x="1.7" y="3" fill="#2C3E50" width="13" height="13"/>
</g>
<g id="sl2">
</g>
</svg>
